# xmcd CD database file
#
# Track frame offsets:
#	150
#	11885
#	24112
#	36827
#	50807
#	64517
#	78467
#	90812
#	101265
#	114780
#	127277
#	140860
#	152807
#	166627
#	178077
#	190697
#	204650
#	217757
#	230755
#	244220
#	256887
#	269067
#	284432
#	296607
#	309685
#	321950
#	334947
#
# Disc length: 4624 seconds
#
# Revision: 0
# Processed by: cddbd v1.5PL3 Copyright (c) Steve Scherf et al.
# Submitted via: CDex 1.51
#
DISCID=8b120e1b
DTITLE=Papa Charlie Jackson - Complete Recorded Works in Chronological Order - Volume 1 (Aug. 1924-Feb. 1926)
DYEAR=1991
DGENRE=Blues
TTITLE0=Papa's Lawdy Lawdy Blues
TTITLE1=Airy Man Blues
TTITLE2=Salt Lake City Blues
TTITLE3=Salty Dog Blues
TTITLE4=The Cat's Got the Measles
TTITLE5=I Got What It Takes but It Breaks My Heart to Give It Away
TTITLE6=Shave 'em Dry
TTITLE7=Coffee Pot Blues
TTITLE8=Mister Man - Part 1 (duet w/Ida Cox)
TTITLE9=Mister Man - Part 2 (duet w/Ida Cox)
TTITLE10=Shake That Thing
TTITLE11=The Faking Blues
TTITLE12=I'm Alabama Bound
TTITLE13=Drop That Sack
TTITLE14=Hot Papa Blues
TTITLE15=Take Me Back Blues
TTITLE16=Mama Don't Allow It (and She Ain't Gonna Have It Here)
TTITLE17=Mama, Don't You Think I Know?
TTITLE18=How Long Daddy, How Long? (Ida Cox, vcl.)
TTITLE19=Maxwell Street Blues
TTITLE20=All I Want Is a Spoonful
TTITLE21=I'm Going Where the Chilly Winds Don't Blow
TTITLE22=Texas Blues (take 1)
TTITLE23=Texas Blues (take 2)
TTITLE24=I'm Tired of Fooling Around with You
TTITLE25=Jackson's Blues
TTITLE26=Let's Get Along
EXTD=YEAR: 1991
EXTT0=
EXTT1=
EXTT2=
EXTT3=
EXTT4=
EXTT5=
EXTT6=
EXTT7=
EXTT8=
EXTT9=
EXTT10=
EXTT11=
EXTT12=
EXTT13=
EXTT14=
EXTT15=
EXTT16=
EXTT17=
EXTT18=
EXTT19=
EXTT20=
EXTT21=
EXTT22=
EXTT23=
EXTT24=
EXTT25=
EXTT26=
PLAYORDER=
